<svg id="Layer_1" data-name="Layer 1" xmlns="http://www.w3.org/2000/svg" viewBox="0 0 600 600"><defs><style>.cls-1{fill:#1d1d1b;}.cls-2{fill:#fff;}.cls-3{fill:#f9f9fa;}.cls-4{fill:#b3b2b1;}</style></defs><path class="cls-1" d="M300,597.41c163.11,0,295.33-133.16,295.33-297.41S463.11,2.59,300,2.59,4.67,135.75,4.67,300,136.89,597.41,300,597.41Z"/><path class="cls-2" d="M261.27,519.69A45.91,45.91,0,0,1,227.59,505l-4.82-5.52a42.94,42.94,0,0,0-28.7-13.84l-7.07-.5a45.77,45.77,0,0,1-25.25-9.88,46.33,46.33,0,0,1-15.33-22.49L144.34,446A43.05,43.05,0,0,0,124.45,421l-6.19-3a46.41,46.41,0,0,1-22.45-47.16l1-7.06a43.52,43.52,0,0,0-7.12-31.22l-4.06-5.84a46.65,46.65,0,0,1,0-52.13l4-5.9a43.57,43.57,0,0,0,7-31.27l-1.37-7a46.57,46.57,0,0,1,4-27,46.09,46.09,0,0,1,18.46-20.06l6.19-3.58a43.3,43.3,0,0,0,19.71-25.1l2-6.95a46.35,46.35,0,0,1,15.19-22.59A45.78,45.78,0,0,1,186,115.06l7.07-.44a42.87,42.87,0,0,0,28.75-14l4.77-5.24A45.83,45.83,0,0,1,277,83.67l6.58,2.6a42.6,42.6,0,0,0,31.82,0L322,83.62A45.64,45.64,0,0,1,372.46,95l4.88,5.24A42.67,42.67,0,0,0,406,114.12l7.12.5a45.62,45.62,0,0,1,25.23,9.89A46.22,46.22,0,0,1,453.64,147l2.08,6.84a43.58,43.58,0,0,0,19.93,25l6.14,3.53a46.42,46.42,0,0,1,22.62,46.88l-1.1,7.06a43.79,43.79,0,0,0,7.18,31.22l4,5.9a46.46,46.46,0,0,1,0,52.13l-4,5.9a43.39,43.39,0,0,0-7,31.38l1.09,7.06a46.48,46.48,0,0,1-22.34,47.05l-6.14,3.53a43.33,43.33,0,0,0-19.77,25.1l-2,6.84A46.35,46.35,0,0,1,439.21,475,45.81,45.81,0,0,1,414,485.05l-7.13.5a42.73,42.73,0,0,0-28.59,14l-4.82,5.51a45.6,45.6,0,0,1-50.39,11.75l-6.62-2.59a42.92,42.92,0,0,0-31.83,0l-6.57,2.7A45.71,45.71,0,0,1,261.27,519.69ZM260.12,83.12a42.86,42.86,0,0,0-17.43,3.64,43.33,43.33,0,0,0-14.5,10.43l-4.82,5.24a45.39,45.39,0,0,1-30.29,14.83l-7.12.5a43.2,43.2,0,0,0-23.91,9.4,43.73,43.73,0,0,0-14.43,21.38l-2.08,6.84A45.39,45.39,0,0,1,124.62,182l-6.14,3.59A43.77,43.77,0,0,0,97.4,229.67l1.09,7.06a46.23,46.23,0,0,1-7.39,33.1l-4,5.9a43.9,43.9,0,0,0,0,49.2l4.05,5.9a46,46,0,0,1,7.61,33.1L97.67,371A43.87,43.87,0,0,0,119,415.11l6.19,3.53a45.7,45.7,0,0,1,21.63,26.92l2.08,6.84a43.72,43.72,0,0,0,14.49,21.24A43.2,43.2,0,0,0,187.22,483l7.07.49a45.14,45.14,0,0,1,30.4,14.62l4.87,5.24a43.17,43.17,0,0,0,47.65,11l6.58-2.65a45.29,45.29,0,0,1,33.68,0l6.63,2.65a43.28,43.28,0,0,0,47.6-11l4.76-5.52A45.45,45.45,0,0,1,406.81,483l7.06-.55a43.44,43.44,0,0,0,38.34-30.78l2-6.84A45.87,45.87,0,0,1,474.94,418l6.14-3.58a43.88,43.88,0,0,0,21.08-44.13l-1-7.45a46.07,46.07,0,0,1,7.45-33.09l3.89-5.52a44,44,0,0,0-.38-49.64l-3.78-5.51a46,46,0,0,1-7.61-33.1l1-7.06a43.9,43.9,0,0,0-3.91-25.36,43.46,43.46,0,0,0-17.4-18.76l-6.19-4a45.47,45.47,0,0,1-21-26.42l-2.14-6.68a43.59,43.59,0,0,0-14.48-21.24,43.16,43.16,0,0,0-23.86-9.32l-7.06-.49A45.41,45.41,0,0,1,375.15,102l-4.82-5.24a43.25,43.25,0,0,0-47.66-11l-6.57,2.65a45.15,45.15,0,0,1-33.74,0l-6.57-2.59A42.08,42.08,0,0,0,260.12,83.12Z"/><path class="cls-3" d="M257,552.07a58.68,58.68,0,0,1-43-18.81l-5.48-5.85a40.33,40.33,0,0,0-26.89-13l-7.89-.49a58.58,58.58,0,0,1-32.25-12.68,59.19,59.19,0,0,1-19.57-28.75l-2.3-7.55a40.61,40.61,0,0,0-18.67-23.45L94,437.62a59.3,59.3,0,0,1-28.86-60l1.15-7.83a41,41,0,0,0-6.58-29.07l-4.49-6.56a59.38,59.38,0,0,1,0-66.58l4.44-6.56a40.8,40.8,0,0,0,6.57-29.29L65,223.88a59.25,59.25,0,0,1,28.53-60.06l6.85-4a40.76,40.76,0,0,0,18.51-23.56l2.25-7.61a59.23,59.23,0,0,1,19.32-28.75,58.51,58.51,0,0,1,32-12.89l7.89-.61A40.15,40.15,0,0,0,207.22,73.3l5.47-5.84a58.51,58.51,0,0,1,64.47-15l7.34,2.92a40.08,40.08,0,0,0,29.8,0l7.34-2.92A58.4,58.4,0,0,1,386.1,66.74l5.48,5.85a40.52,40.52,0,0,0,26.95,13l7.83.55a58.5,58.5,0,0,1,32.27,12.63,59.17,59.17,0,0,1,19.6,28.74l2.3,7.61A40.44,40.44,0,0,0,499,158.74l6.85,4a59.21,59.21,0,0,1,28.86,59.9l-1.2,7.84a40.94,40.94,0,0,0,6.74,29.23l4.49,6.56a59.38,59.38,0,0,1,0,66.58l-4.44,6.56a41.06,41.06,0,0,0-6.35,29l1.26,7.89a59.5,59.5,0,0,1-5.08,34.55A58.88,58.88,0,0,1,506.6,436.4l-6.84,4a40.41,40.41,0,0,0-18.52,23.55l-2,7.61a59.25,59.25,0,0,1-19.43,28.84,58.58,58.58,0,0,1-32.17,12.86l-7.89.55A40.14,40.14,0,0,0,393,526.92l-5.48,5.84a58.44,58.44,0,0,1-64.41,15l-7.45-2.93a40.21,40.21,0,0,0-29.85,0l-7.34,2.93A57.36,57.36,0,0,1,257,552.07ZM255.8,66.3a40.6,40.6,0,0,0-30,13.18l-5.48,5.85a58.07,58.07,0,0,1-38.78,18.92l-7.83.6a40.49,40.49,0,0,0-22.31,8.87,40.92,40.92,0,0,0-13.46,20l-2.24,7.61a58.44,58.44,0,0,1-26.62,34l-6.85,4a41,41,0,0,0-19.72,41.59l1.21,7.89A59,59,0,0,1,74.28,271l-4.43,6.57a41.27,41.27,0,0,0,0,46.11l4.49,6.56A58.87,58.87,0,0,1,84,372.53l-1.15,7.83a41,41,0,0,0,20,41.54l6.85,3.91a58.63,58.63,0,0,1,26.95,33.82l2.3,7.61a41,41,0,0,0,13.58,19.89,40.53,40.53,0,0,0,22.35,8.73l7.89.55a58.2,58.2,0,0,1,39,18.7l5.48,5.85a40.32,40.32,0,0,0,44.64,10.15l7.34-3a58,58,0,0,1,43.11,0l7.34,2.92a40.46,40.46,0,0,0,44.58-10.37l5.48-5.9a57.89,57.89,0,0,1,38.72-18.92l7.62-.66a40.44,40.44,0,0,0,22.28-8.9,41,41,0,0,0,13.43-20l2.3-7.61a58.52,58.52,0,0,1,26.73-34l6.84-4a40.82,40.82,0,0,0,16.26-17.61,41.28,41.28,0,0,0,3.63-23.76l-1.21-7.89a59,59,0,0,1,9.42-42.3l4.49-6.57a41.13,41.13,0,0,0,0-46.11L525.77,270a59,59,0,0,1-9.69-42.25l.93-8.32a41.19,41.19,0,0,0-3.65-23.85A40.77,40.77,0,0,0,497,177.94l-6.85-3.75a58.08,58.08,0,0,1-26.95-33.81l-2.35-7.62a40.87,40.87,0,0,0-13.54-19.9A40.34,40.34,0,0,0,425,104.14l-7.89-.55a58.07,58.07,0,0,1-38.83-18.7L372.79,79A40.49,40.49,0,0,0,328.1,68.89l-7.34,3a57.83,57.83,0,0,1-43.05,0L270.37,69A40.08,40.08,0,0,0,255.8,66.3Z"/><path class="cls-2" d="M300,600a296.39,296.39,0,0,1-165.51-50.56A301.31,301.31,0,0,1,89.35,87.87,296.77,296.77,0,0,1,547.7,133.33,301.33,301.33,0,0,1,510.56,512,297.22,297.22,0,0,1,300,600ZM300,5.18A291.38,291.38,0,0,0,137.35,54.87,296.12,296.12,0,0,0,93,508.47a291.65,291.65,0,0,0,450.43-44.68,296.12,296.12,0,0,0-36.5-372.16A292.09,292.09,0,0,0,300,5.18Z"/><path class="cls-4" d="M300,34.69A262.11,262.11,0,0,0,153.63,79.41,266.47,266.47,0,0,0,113.71,487.6a262.44,262.44,0,0,0,405.34-40.2,266.74,266.74,0,0,0-32.76-335A262.56,262.56,0,0,0,300,34.69ZM540.5,339.16A41.05,41.05,0,0,0,534,368.34l1.26,7.89a59.54,59.54,0,0,1-5.09,34.54A58.93,58.93,0,0,1,506.6,436.4l-6.85,4a40.4,40.4,0,0,0-18.51,23.55l-2,7.61a58.92,58.92,0,0,1-51.59,41.7l-7.89.55A40.14,40.14,0,0,0,393,526.92l-5.48,5.84a58.44,58.44,0,0,1-64.41,15l-7.45-2.93a40.21,40.21,0,0,0-29.85,0l-7.34,2.93A57.32,57.32,0,0,1,257,552a58.68,58.68,0,0,1-43-18.81l-5.48-5.85a40.33,40.33,0,0,0-26.89-13l-7.89-.5a58.49,58.49,0,0,1-32.25-12.67,59.19,59.19,0,0,1-19.57-28.75l-2.3-7.56a40.59,40.59,0,0,0-18.67-23.44L94,437.51a59.32,59.32,0,0,1-28.87-60l1.15-7.89a40.91,40.91,0,0,0-6.57-28.9l-4.49-6.56a59.38,59.38,0,0,1,0-66.58l4.49-6.56a41,41,0,0,0,6.52-29.29L65,223.88a59.25,59.25,0,0,1,28.53-60.06l6.85-4a40.76,40.76,0,0,0,18.51-23.56l2.25-7.61a59.23,59.23,0,0,1,19.32-28.75,58.51,58.51,0,0,1,32-12.89l7.89-.61A40.1,40.1,0,0,0,207.21,73.3l5.48-5.84a58.54,58.54,0,0,1,64.47-15l7.34,2.93a40.05,40.05,0,0,0,29.79,0l7.34-2.93A58.44,58.44,0,0,1,386.1,66.74l5.48,5.85a40.49,40.49,0,0,0,26.95,13l7.83.55a58.5,58.5,0,0,1,32.27,12.63,59.17,59.17,0,0,1,19.6,28.74l2.3,7.61A40.44,40.44,0,0,0,499,158.74l6.85,4a59.21,59.21,0,0,1,28.86,59.9l-1.2,7.84a40.89,40.89,0,0,0,6.74,29.23l4.49,6.56a59.47,59.47,0,0,1,0,66.58Z"/><path class="cls-2" d="M298.14,175.29v51.3H219.05s-1.54-72.81,79.09-82v12.25s-51.16,0-65,52.78h52.25V193.6H267.74a38.3,38.3,0,0,1,30.4-18.31Z"/><path class="cls-2" d="M308,175.29v51.3h79.09s1.48-72.76-79.09-81.91v12.24s53.62,0,65,52.79H320.76V193.6H338.4A38.34,38.34,0,0,0,308,175.29Z"/><path class="cls-2" d="M314.57,128.3a16.22,16.22,0,0,1-11.5,13.9,16.21,16.21,0,0,1-11.5-14.12,11.67,11.67,0,0,1,3.36-8.2,11.46,11.46,0,0,1,16.27,0,11.64,11.64,0,0,1,3.37,8.2Z"/><path class="cls-2" d="M406.42,223.06c10.52,22.94-220.18,18.58-205.29,0,0,0-38.88,17.65,41.58,26.47a587,587,0,0,0,124.17-.66C441.91,239.77,406.42,223.06,406.42,223.06Z"/><path class="cls-2" d="M242.22,291.45a24.21,24.21,0,0,0-2.47-9.32,19.67,19.67,0,0,0-5.48-6.51,24.35,24.35,0,0,0-7.83-3.81,34.89,34.89,0,0,0-9.42-1.26,42.09,42.09,0,0,0-15.34,2.75,31,31,0,0,0-11.77,7.89,32.7,32.7,0,0,0-7,12.3,52.14,52.14,0,0,0-2.24,15.89,56.06,56.06,0,0,0,2.3,16.54,37.48,37.48,0,0,0,7,13.3,32.32,32.32,0,0,0,11.77,8.88,37.71,37.71,0,0,0,15.34,3.2,19.66,19.66,0,0,0,3.67-.28,46.64,46.64,0,0,0,5.48-1,24.47,24.47,0,0,0,5.48-1.93c1.58-.77,2.35-1.77,2.35-3V327.3a9.83,9.83,0,0,0-.55-3.64,4.7,4.7,0,0,0-2.24-2.37,13.58,13.58,0,0,0-4.77-1.43c-2.08-.28-4.87-.5-8.27-.61v-3.47H255V319a28.42,28.42,0,0,0-4.38.83,5.44,5.44,0,0,0-2.63,1.82,7.21,7.21,0,0,0-1.31,3.36,36.37,36.37,0,0,0-.33,5.52v13.9a40.06,40.06,0,0,0,.55,6.56q-7.56,2-15.78,3.48a84,84,0,0,1-14.84,1.71,63.88,63.88,0,0,1-20.76-3.15,46.94,46.94,0,0,1-15.83-8.93,40.74,40.74,0,0,1-10.41-14,43.05,43.05,0,0,1-3.72-18.21,46,46,0,0,1,4.22-20.24,41.33,41.33,0,0,1,11.61-14.39,50.68,50.68,0,0,1,17.25-8.66,79.87,79.87,0,0,1,21.91-2.82h6.35a50.74,50.74,0,0,1,7,.77c2.36.34,4.66.72,7,1.16l6.3,1.33c-.39,3.86-.55,7.5-.61,11s0,7.06,0,11Z"/><path class="cls-2" d="M311.94,344.18a36,36,0,0,1-6.41,6.29,32.57,32.57,0,0,1-6.08,3.58,23,23,0,0,1-5.47,1.71,20.88,20.88,0,0,1-4.17.45,28.49,28.49,0,0,1-11.28-2,26.29,26.29,0,0,1-8.38-5.51,25.5,25.5,0,0,1-5.48-8.44A26.92,26.92,0,0,1,263,329.73a27.86,27.86,0,0,1,2.24-11,30.74,30.74,0,0,1,6.08-9.1,28.13,28.13,0,0,1,28.16-7.45,19.55,19.55,0,0,1,6.57,3.75,18.9,18.9,0,0,1,4.49,5.85,17.69,17.69,0,0,1,1.64,7.72V322a2.53,2.53,0,0,1-.83,1.74,2.5,2.5,0,0,1-1.79.68H275a29.89,29.89,0,0,0,1.59,10.82,19.2,19.2,0,0,0,4.65,7.06,19.39,19.39,0,0,0,6.52,4,19.16,19.16,0,0,0,13.86,0,22.44,22.44,0,0,0,7.28-5Zm-15.72-23.61a3.19,3.19,0,0,0,1.27-.08,3.24,3.24,0,0,0,1.14-.58,3.61,3.61,0,0,0,.55-2.31,12.53,12.53,0,0,0-.71-4.42,9.79,9.79,0,0,0-2.25-3.58,11.88,11.88,0,0,0-3.56-2.48,11,11,0,0,0-4.49-.89,10,10,0,0,0-4.22,1,12.69,12.69,0,0,0-3.89,2.81,16.3,16.3,0,0,0-2.95,4.47,20.39,20.39,0,0,0-1.76,6.17Z"/><path class="cls-2" d="M342.29,356.15c-2.69-7.34-5.48-14.34-8.33-21.07s-5.81-13.51-8.82-20.3c-.82-1.76-1.53-3.2-2.19-4.3a8.81,8.81,0,0,0-2.24-2.43,8.06,8.06,0,0,0-3-1.21,35,35,0,0,0-4.44-.55v-3.53h28.81V306a22,22,0,0,0-5.2,1.05,2.09,2.09,0,0,0-1.05.75,2.13,2.13,0,0,0-.43,1.23,5.38,5.38,0,0,0,.33,1.77,7.33,7.33,0,0,0,.76,2.31l11,27.25,11.83-27.58c.33-.77.6-1.49.82-2.15a4.71,4.71,0,0,0,.33-1.65,2.29,2.29,0,0,0-.48-1.35,2.32,2.32,0,0,0-1.16-.81,17.12,17.12,0,0,0-5.81-.93v-3.26h24.76v3.09a26.3,26.3,0,0,0-4.49.83,9.47,9.47,0,0,0-3,1.27,9.57,9.57,0,0,0-2.3,2.53c-.66,1.05-1.48,2.54-2.41,4.31l-3.78,7.5-4.44,9.6c-1.59,3.53-3.28,7.28-5,11s-3.56,8.22-5.48,12.57Z"/><path class="cls-2" d="M170.68,379h5.48v11c.55-.94,1.15-1.88,1.75-2.76l5.48-8.5h7.06l-8.38,11,8.82,14.67H184.7l-6.19-11-2.19,2.64v8.39h-5.47Z"/><path class="cls-2" d="M219.38,379v25.54H213.9V379Z"/><path class="cls-2" d="M249.17,383.84h-6.85V379h19.5v4.86h-6.9v20.68h-5.75Z"/><path class="cls-2" d="M302.3,403.81a17,17,0,0,1-6.52,1.1,12.12,12.12,0,0,1-13.25-12.8,13,13,0,0,1,3.88-9.88,12.93,12.93,0,0,1,4.58-2.88,12.61,12.61,0,0,1,5.34-.75,14.33,14.33,0,0,1,6.24,1.1l-1.15,4.58a12.22,12.22,0,0,0-4.82-.94,8.27,8.27,0,0,0-5,2.85,8.42,8.42,0,0,0,0,10.85,8.27,8.27,0,0,0,5,2.85,14.59,14.59,0,0,0,4.77-.83Z"/><path class="cls-2" d="M331.71,379v9.82h9.42V379h5.48v25.54h-5.48v-10.7h-9.42v10.7h-5.86V379Z"/><path class="cls-2" d="M386.82,393.71H377.5v6.07h10.41v4.74H371.48V379h15.61v4.75h-9.86v5.51h9.31Z"/><path class="cls-2" d="M411.73,404.52V379h6.69l5.47,9.38a70.41,70.41,0,0,1,4.17,8.72,94.68,94.68,0,0,1-.5-10.65V379H433v25.54h-6.3l-5.47-9.87c-1.48-2.7-3.13-6-4.39-9v18.75Z"/><path class="cls-2" d="M403.47,277.66a16.31,16.31,0,0,1-1.32,6.57,22.16,22.16,0,0,1-3.67,5.51,24,24,0,0,1-5.48,4.41,29.72,29.72,0,0,1-6.24,3.09l-1.48-3.42a19.1,19.1,0,0,0,6.9-4.85,11.06,11.06,0,0,0,2.69-7.72,6.87,6.87,0,0,0-4.32-7,6.81,6.81,0,0,0-2.86-.47,3.29,3.29,0,0,1-1.48-1.6,5.2,5.2,0,0,1-.11-2,4.93,4.93,0,0,1,2-4.14,7.39,7.39,0,0,1,4.55-1.49,9.47,9.47,0,0,1,4.65,1.22,11.63,11.63,0,0,1,3.45,3.14,14.44,14.44,0,0,1,2.14,4.19A15.1,15.1,0,0,1,403.47,277.66Z"/><path class="cls-2" d="M436,318.26a14.26,14.26,0,0,0-1.37-5.13,13.16,13.16,0,0,0-2.85-3.92,12.76,12.76,0,0,0-4.22-2.59,13.51,13.51,0,0,0-5.48-.94,8.94,8.94,0,0,0-3.28.55,7.18,7.18,0,0,0-2.58,1.49,6.21,6.21,0,0,0-1.75,2.48,7.94,7.94,0,0,0-.66,3,6.76,6.76,0,0,0,1,3.58,9.81,9.81,0,0,0,2.85,2.71,39.26,39.26,0,0,0,4.11,2l4.88,2.09,5.47,2.48a23.69,23.69,0,0,1,5.1,3.15,12.61,12.61,0,0,1,3.5,4.58A14.42,14.42,0,0,1,442,340a14.1,14.1,0,0,1-1.15,7.28,16.61,16.61,0,0,1-4.71,5,19.92,19.92,0,0,1-6.47,2.93,30,30,0,0,1-7.78.94,35.41,35.41,0,0,1-4.71-.34l-4.49-.82-3.61-.89a35.94,35.94,0,0,0-4-.55,18,18,0,0,0-.33-3.91c-.33-1.6-.27-3.15-.49-4.8s-.38-3.15-.55-4.64a21.8,21.8,0,0,0-.71-3.47l3.45-.83a52.15,52.15,0,0,0,2.79,5.9,22.76,22.76,0,0,0,3.51,4.91,17.14,17.14,0,0,0,4.71,3.48,14.6,14.6,0,0,0,6.41,1.38,9.58,9.58,0,0,0,5.47-2,6.22,6.22,0,0,0,2.05-2.41,6.38,6.38,0,0,0,.64-3.1,6.09,6.09,0,0,0-1.15-3.81,11.53,11.53,0,0,0-2.85-2.81,18.6,18.6,0,0,0-3.62-2.26l-4.38-1.94a54,54,0,0,1-5.47-2.59,23.43,23.43,0,0,1-5.48-3.53,12.7,12.7,0,0,1-3.5-4.67,13,13,0,0,1-1.05-5.75,14.31,14.31,0,0,1,1.75-7.17,15.33,15.33,0,0,1,4.5-4.91,19,19,0,0,1,6.13-2.54,32.28,32.28,0,0,1,7.5-1.1,34.67,34.67,0,0,1,7.12.71,52.93,52.93,0,0,0,8.22.94,44.74,44.74,0,0,1-.33,5.52v9.93Z"/></svg>