<svg width="101" height="100" viewBox="0 0 101 100" fill="none" xmlns="http://www.w3.org/2000/svg">
<path d="M51.162 96.1795C76.4368 96.1795 96.926 75.5463 96.926 50.094C96.926 24.6417 76.4368 4.00854 51.162 4.00854C25.8872 4.00854 5.39795 24.6417 5.39795 50.094C5.39795 75.5463 25.8872 96.1795 51.162 96.1795Z" fill="#1D1D1B"/>
<path d="M45.1615 84.1367C44.1831 84.1387 43.2148 83.9379 42.3168 83.5468C41.4188 83.1557 40.6103 82.5826 39.9417 81.8632L39.1948 81.0085C38.0389 79.7477 36.4476 78.9801 34.7475 78.8632L33.6526 78.7863C32.225 78.6834 30.8614 78.1496 29.7395 77.2547C28.6177 76.3597 27.7896 75.1451 27.3634 73.7692L27.0409 72.7094C26.5441 71.0713 25.4411 69.6882 23.96 68.8461L23.0009 68.3761C21.7567 67.6535 20.7586 66.5689 20.1375 65.2647C19.5165 63.9606 19.3016 62.4977 19.5211 61.0684L19.6823 59.9743C19.943 58.279 19.5481 56.5476 18.579 55.1367L17.9509 54.2308C17.1463 53.0398 16.7161 51.6327 16.7161 50.1923C16.7161 48.7519 17.1463 47.3448 17.9509 46.1538L18.5705 45.2393C19.5342 43.8231 19.923 42.089 19.6569 40.3932L19.4447 39.3162C19.2238 37.8889 19.4373 36.4277 20.0569 35.1248C20.6765 33.822 21.6733 32.7385 22.916 32.0171L23.8751 31.4615C25.3488 30.6051 26.4418 29.2139 26.9306 27.5726L27.2361 26.4957C27.6541 25.1176 28.4742 23.898 29.5898 22.9956C30.7054 22.0932 32.0649 21.5497 33.4913 21.4359L34.5862 21.3675C36.292 21.2492 37.8873 20.475 39.0421 19.2051L39.7805 18.3932C40.7522 17.3358 42.017 16.5969 43.4109 16.2722C44.8047 15.9476 46.2633 16.0523 47.5974 16.5726L48.6159 16.9744C50.1988 17.6112 51.9641 17.6112 53.547 16.9744L54.574 16.5641C55.9026 16.034 57.359 15.9193 58.7534 16.2349C60.1477 16.5505 61.4153 17.2817 62.3909 18.3333L63.1463 19.1453C64.2975 20.4078 65.8869 21.1759 67.5852 21.2906L68.6885 21.3675C70.115 21.471 71.4773 22.0051 72.5977 22.9001C73.7181 23.7951 74.5446 25.0094 74.9692 26.3846L75.2917 27.4444C75.7972 29.0826 76.9014 30.4665 78.3811 31.3162L79.3317 31.8632C80.5723 32.5803 81.57 33.6566 82.1951 34.9522C82.8202 36.2479 83.0439 37.7029 82.837 39.1282L82.6673 40.2222C82.4134 41.9185 82.811 43.6484 83.7791 45.0598L84.4072 45.9743C85.214 47.1644 85.6456 48.5719 85.6456 50.0128C85.6456 51.4538 85.214 52.8612 84.4072 54.0513L83.7876 54.9658C82.8193 56.3864 82.4331 58.1287 82.7097 59.829L82.8795 60.9231C83.0945 62.3478 82.8793 63.8048 82.2618 65.1049C81.6443 66.4049 80.653 67.488 79.4166 68.2137L78.466 68.7607C76.9891 69.6155 75.8929 71.0069 75.4021 72.6496L75.088 73.7094C74.67 75.0875 73.8499 76.3071 72.7343 77.2095C71.6187 78.1119 70.2593 78.6554 68.8328 78.7692L67.7295 78.8461C66.0308 78.9705 64.4445 79.7478 63.299 81.0171L62.5522 81.8718C61.5838 82.9314 60.3204 83.6721 58.9272 83.9969C57.5341 84.3217 56.076 84.2155 54.7438 83.6923L53.7168 83.2906C52.1331 82.6581 50.3693 82.6581 48.7856 83.2906L47.7671 83.7094C46.9326 84.0139 46.0489 84.1589 45.1615 84.1367ZM44.9832 16.4872C44.0533 16.4841 43.133 16.6763 42.281 17.0516C41.429 17.4268 40.6641 17.9769 40.0351 18.6667L39.2882 19.4786C38.0727 20.8205 36.3933 21.6431 34.5947 21.7778L33.4913 21.8547C32.1385 21.9523 30.8468 22.4602 29.7863 23.3115C28.7258 24.1629 27.9462 25.3177 27.5501 26.6239L27.2276 27.6838C26.7154 29.4269 25.5536 30.903 23.9854 31.8034L23.0348 32.359C21.8742 33.0395 20.9426 34.0546 20.3602 35.2733C19.7777 36.4921 19.5712 37.8585 19.7672 39.1966L19.9369 40.2906C20.2186 42.0846 19.8087 43.9191 18.7911 45.4188L18.1716 46.3333C17.41 47.4566 17.0026 48.7851 17.0026 50.1453C17.0026 51.5054 17.41 52.8339 18.1716 53.9573L18.7996 54.8718C19.8306 56.3659 20.2529 58.2015 19.9794 60L19.8096 61.094C19.6192 62.4354 19.8319 63.8035 20.4203 65.0221C21.0087 66.2408 21.9459 67.2541 23.1112 67.9316L24.0703 68.4786C25.6876 69.3726 26.8916 70.8704 27.4228 72.6496L27.7454 73.7094C28.1481 75.0087 28.9305 76.1555 29.9904 77.0002C31.0502 77.8448 32.3383 78.3482 33.6865 78.4444L34.7814 78.5214C36.5826 78.6376 38.2698 79.4489 39.4919 80.7863L40.2473 81.5983C41.1648 82.5977 42.3601 83.2955 43.6774 83.6004C44.9946 83.9054 46.3725 83.8034 47.6313 83.3077L48.6498 82.8974C50.3259 82.2261 52.1935 82.2261 53.8696 82.8974L54.8965 83.3077C56.1546 83.7991 57.5301 83.8989 58.8451 83.5941C60.1601 83.2893 61.3539 82.5941 62.2721 81.5983L63.0105 80.7436C64.229 79.4022 65.9118 78.5824 67.7125 78.453L68.8074 78.3675C70.1598 78.2688 71.4509 77.7604 72.5112 76.9093C73.5716 76.0581 74.3515 74.9039 74.7485 73.5983L75.0626 72.5385C75.564 70.7889 76.7122 69.2993 78.2708 68.3761L79.2214 67.8205C80.3805 67.1382 81.3107 66.1228 81.8929 64.9046C82.4751 63.6863 82.6827 62.3207 82.4891 60.9829L82.3278 59.829C82.046 58.0339 82.4592 56.1982 83.4821 54.7008L84.0847 53.8461C84.8501 52.709 85.2542 51.3644 85.2436 49.9907C85.233 48.6169 84.8081 47.2789 84.0253 46.1538L83.4396 45.2991C82.4078 43.8054 81.9855 41.9694 82.2599 40.1709L82.4212 39.0769C82.6151 37.7352 82.404 36.3658 81.8153 35.1465C81.2265 33.9271 80.2873 32.9142 79.1196 32.2393L78.1605 31.6239C76.5915 30.7323 75.4243 29.266 74.9013 27.5299L74.5703 26.4957C74.1686 25.1958 73.3865 24.0484 72.3264 23.2035C71.2664 22.3587 69.9777 21.8558 68.6291 21.7607L67.5343 21.6838C65.727 21.5652 64.0343 20.7512 62.8068 19.4102L62.0599 18.5983C61.1417 17.5998 59.9464 16.9028 58.6294 16.5979C57.3124 16.293 55.9348 16.3944 54.6759 16.8889L53.6574 17.2991C51.9791 17.9745 50.1074 17.9745 48.4291 17.2991L47.4106 16.8974C46.6345 16.6075 45.8109 16.4683 44.9832 16.4872Z" fill="white"/>
<path d="M44.4908 89.1539C43.2398 89.1551 42.0019 88.8969 40.8542 88.3955C39.7065 87.8941 38.6736 87.1601 37.8197 86.2393L36.971 85.3334C35.8868 84.1536 34.3962 83.4351 32.8037 83.3248L31.5815 83.2479C29.758 83.1133 28.0169 82.429 26.5849 81.2842C25.1529 80.1394 24.0962 78.587 23.5524 76.8291L23.196 75.6581C22.7275 74.1194 21.6919 72.8197 20.3018 72.0257L19.2408 71.4188C17.6552 70.5015 16.3805 69.1247 15.5828 67.4676C14.785 65.8106 14.5011 63.95 14.768 62.1282L14.9462 60.9145C15.1837 59.3375 14.8198 57.7283 13.9277 56.4103L13.2318 55.3932C12.2009 53.8733 11.6494 52.0756 11.6494 50.2351C11.6494 48.3945 12.2009 46.5968 13.2318 45.0769L13.9192 44.0598C14.8231 42.7341 15.1876 41.1097 14.9377 39.5214L14.751 38.2992C14.4745 36.48 14.7485 34.6191 15.5372 32.9589C16.326 31.2987 17.5929 29.9162 19.1729 28.9915L20.2339 28.3761C21.6166 27.5717 22.6426 26.2664 23.1026 24.7265L23.4506 23.547C23.9838 21.7942 25.0266 20.2425 26.4441 19.0922C27.8617 17.942 29.589 17.246 31.4033 17.094L32.6255 17C34.2193 16.8834 35.7079 16.1553 36.7843 14.9658L37.633 14.0598C38.8745 12.7081 40.491 11.7636 42.2725 11.349C44.054 10.9344 45.9181 11.0689 47.6227 11.7351L48.76 12.1881C50.2426 12.7818 51.8946 12.7818 53.3771 12.1881L54.5145 11.7351C56.2081 11.0532 58.0661 10.8997 59.8474 11.2944C61.6288 11.6892 63.2512 12.6139 64.5041 13.9487L65.3529 14.8547C66.4407 16.0343 67.9338 16.7525 69.5286 16.8633L70.7423 16.9487C72.5667 17.0799 74.3094 17.7617 75.7431 18.9052C77.1769 20.0487 78.2352 21.6008 78.7799 23.359L79.1364 24.5385C79.5887 26.0868 80.6161 27.4 82.0051 28.2051L83.066 28.8205C84.6518 29.7356 85.9268 31.1107 86.7247 32.7665C87.5227 34.4223 87.8064 36.2819 87.5389 38.1026L87.3522 39.3163C87.1146 40.905 87.4879 42.5252 88.3961 43.8462L89.0921 44.8633C90.123 46.3831 90.6744 48.1808 90.6744 50.0214C90.6744 51.8619 90.123 53.6597 89.0921 55.1795L88.4046 56.1966C87.5294 57.5151 87.178 59.1166 87.4201 60.6838L87.6153 61.906C87.895 63.7297 87.6208 65.596 86.8286 67.2601C86.0365 68.9241 84.7634 70.3082 83.1764 71.2308L82.1155 71.8462C80.7299 72.6472 79.7029 73.9538 79.2467 75.4958L78.9327 76.6752C78.3971 78.4354 77.3483 79.9928 75.9226 81.1451C74.4968 82.2973 72.76 82.9913 70.9376 83.1368L69.7154 83.2222C68.1245 83.341 66.6393 84.0689 65.565 85.2564L64.7163 86.1624C63.4768 87.5144 61.8618 88.4593 60.0815 88.8739C58.3013 89.2886 56.4383 89.1538 54.7351 88.4872L53.5808 88.0342C52.0954 87.4399 50.4406 87.4399 48.9552 88.0342L47.8179 88.4872C46.7614 88.9217 45.632 89.148 44.4908 89.1539ZM44.3126 13.8804C43.4406 13.8791 42.5777 14.06 41.7786 14.4116C40.9795 14.7632 40.2615 15.2779 39.67 15.9231L38.8213 16.8291C37.2642 18.5442 35.1138 19.5933 32.8122 19.7607L31.5985 19.8547C30.3354 19.952 29.1308 20.4307 28.1421 21.2282C27.1533 22.0256 26.4264 23.1048 26.0562 24.3248L25.7082 25.5043C25.0519 27.7256 23.5759 29.6095 21.5834 30.7692L20.5224 31.3846C19.4286 32.0247 18.5518 32.9821 18.0067 34.1318C17.4616 35.2815 17.2735 36.57 17.467 37.8291L17.6537 39.0513C18.0134 41.3451 17.488 43.6906 16.1854 45.6069L15.4979 46.624C14.7871 47.6779 14.4071 48.9226 14.4071 50.1966C14.4071 51.4706 14.7871 52.7153 15.4979 53.7692L16.1939 54.7863C17.5087 56.6944 18.0464 59.0378 17.6961 61.3334L17.5179 62.547C17.3314 63.8091 17.5273 65.0985 18.08 66.2467C18.6327 67.3949 19.5164 68.3485 20.6158 68.9829L21.6767 69.5898C23.6817 70.7355 25.1757 72.6099 25.8525 74.8291L26.209 76.0086C26.5875 77.2254 27.321 78.2993 28.3141 79.0905C29.3071 79.8817 30.5137 80.3535 31.7767 80.4445L32.9989 80.5299C35.3072 80.6815 37.4699 81.7185 39.0419 83.4274L39.8907 84.3334C40.7521 85.2667 41.8735 85.9162 43.1078 86.1968C44.3421 86.4774 45.6318 86.3761 46.8079 85.906L47.9452 85.4445C50.0901 84.5856 52.4799 84.5856 54.6248 85.4445L55.7621 85.8975C56.9409 86.358 58.23 86.451 59.462 86.1645C60.694 85.8779 61.8119 85.2251 62.6708 84.2906L63.5196 83.3761C65.0729 81.6608 67.2209 80.6114 69.5202 80.4445L70.6999 80.3419C71.9625 80.2423 73.166 79.7616 74.1532 78.9627C75.1404 78.1637 75.8655 77.0836 76.2337 75.8633L76.5902 74.6838C77.2522 72.4604 78.7342 70.5766 80.732 69.4188L81.7929 68.8034C82.8847 68.1683 83.762 67.2178 84.3113 66.0749C84.8606 64.9321 85.0565 63.6495 84.8739 62.3932L84.6871 61.171C84.325 58.8782 84.8473 56.5328 86.147 54.6154L86.8429 53.5983C87.5559 52.5452 87.9373 51.3002 87.9373 50.0257C87.9373 48.7511 87.5559 47.5061 86.8429 46.453L86.147 45.4445C84.8338 43.5356 84.2962 41.1929 84.6447 38.8975L84.789 37.6069C84.9737 36.3461 84.7769 35.0586 84.2243 33.9121C83.6717 32.7656 82.789 31.8134 81.6911 31.1795L80.6302 30.5983C78.6194 29.4594 77.1234 27.5823 76.4544 25.359L76.0894 24.1795C75.7145 22.9621 74.9831 21.8872 73.9911 21.0957C72.9991 20.3041 71.7927 19.8328 70.5302 19.7436L69.308 19.6581C67.0082 19.5019 64.8551 18.4651 63.2904 16.7607L62.4417 15.8547C61.5775 14.9227 60.4547 14.2742 59.2195 13.9937C57.9842 13.7132 56.6937 13.8137 55.516 14.2821L54.3786 14.7436C52.2368 15.6028 49.8494 15.6028 47.7076 14.7436L46.5702 14.2906C45.8493 14.0147 45.0838 13.8756 44.3126 13.8804Z" fill="#F9F9F9"/>
<path d="M51.162 96.5812C42.0318 96.5812 33.1067 93.8548 25.5152 88.7467C17.9238 83.6386 12.007 76.3783 8.51299 67.8839C5.01903 59.3895 4.10484 50.0424 5.88605 41.0248C7.66726 32.0072 12.0639 23.724 18.5199 17.2226C24.9759 10.7213 33.2013 6.29379 42.156 4.50007C51.1108 2.70635 60.3926 3.62695 68.8278 7.14546C77.263 10.664 84.4726 16.6223 89.5451 24.2671C94.6175 31.9119 97.3249 40.8997 97.3249 50.094C97.3114 62.419 92.4435 74.2353 83.7892 82.9504C75.1349 91.6655 63.401 96.5676 51.162 96.5812ZM51.162 4.41025C42.1896 4.41025 33.4187 7.08956 25.9585 12.1094C18.4982 17.1291 12.6837 24.264 9.25007 32.6116C5.81649 40.9592 4.91811 50.1447 6.66854 59.0065C8.41896 67.8682 12.7396 76.0083 19.084 82.3973C25.4284 88.7863 33.5117 93.1373 42.3117 94.9C51.1117 96.6627 60.2331 95.758 68.5225 92.3003C76.8119 88.8426 83.8969 82.9872 88.8817 75.4745C93.8665 67.9619 96.5271 59.1294 96.5271 50.094C96.5136 37.9821 91.7298 26.3701 83.2251 17.8057C74.7204 9.24128 63.1894 4.42382 51.162 4.41025Z" fill="white"/>
<path d="M51.162 8.98291C43.0877 8.98291 35.1948 11.394 28.4812 15.9114C21.7677 20.4287 16.5351 26.8494 13.4452 34.3615C10.3553 41.8736 9.54688 50.1396 11.1221 58.1144C12.6973 66.0892 16.5855 73.4145 22.2948 79.164C28.0042 84.9135 35.2784 88.8289 43.1976 90.4152C51.1167 92.0015 59.3252 91.1873 66.7848 88.0757C74.2445 84.9641 80.6204 79.6948 85.1063 72.9341C89.5921 66.1735 91.9864 58.225 91.9864 50.094C91.9864 39.1907 87.6853 28.7339 80.0292 21.0241C72.3732 13.3142 61.9893 8.98291 51.162 8.98291ZM88.4302 56.1624C87.5376 57.4866 87.1767 59.1022 87.4202 60.6838L87.6154 61.906C87.8939 63.7296 87.6191 65.5955 86.8271 67.2593C86.0351 68.9231 84.7627 70.3073 83.1765 71.2308L82.1156 71.8462C80.73 72.6472 79.703 73.9538 79.2468 75.4957L78.9328 76.6752C78.3972 78.4354 77.3484 79.9928 75.9227 81.1451C74.4969 82.2973 72.7601 82.9913 70.9377 83.1368L69.7155 83.2222C68.1246 83.341 66.6394 84.0689 65.5651 85.2564L64.7164 86.1624C63.4769 87.5144 61.8619 88.4592 60.0816 88.8739C58.3014 89.2885 56.4384 89.1538 54.7352 88.4872L53.5809 88.0342C52.0955 87.4399 50.4407 87.4399 48.9553 88.0342L47.818 88.4872C46.7604 88.9158 45.631 89.1363 44.4909 89.1368C43.2399 89.138 42.002 88.8798 40.8543 88.3784C39.7066 87.877 38.6737 87.143 37.8199 86.2222L36.9711 85.3162C35.8869 84.1365 34.3963 83.418 32.8038 83.3077L31.5816 83.2308C29.7581 83.0962 28.017 82.4119 26.585 81.2671C25.153 80.1223 24.0963 78.5699 23.5525 76.812L23.1961 75.641C22.7276 74.1023 21.692 72.8026 20.3019 72.0086L19.2409 71.4017C17.6553 70.4844 16.3806 69.1076 15.5829 67.4505C14.7851 65.7935 14.5012 63.9329 14.7681 62.1111L14.9463 60.8889C15.178 59.3202 14.8144 57.7211 13.9278 56.4103L13.2319 55.3932C12.201 53.8733 11.6495 52.0756 11.6495 50.2351C11.6495 48.3945 12.201 46.5968 13.2319 45.0769L13.9278 44.0598C14.8247 42.7311 15.1858 41.1085 14.9378 39.5214L14.7511 38.2992C14.4747 36.4799 14.7486 34.6191 15.5373 32.9589C16.3261 31.2987 17.593 29.9162 19.173 28.9915L20.234 28.3761C21.6167 27.5717 22.6427 26.2664 23.1027 24.7265L23.4507 23.547C23.984 21.7942 25.0267 20.2425 26.4442 19.0922C27.8618 17.942 29.5892 17.246 31.4034 17.094L32.6256 17C34.2194 16.8834 35.708 16.1553 36.7844 14.9658L37.6331 14.0598C38.8746 12.7081 40.4911 11.7636 42.2726 11.349C44.0541 10.9344 45.9182 11.0689 47.6228 11.735L48.7601 12.188C50.2427 12.7818 51.8947 12.7818 53.3772 12.188L54.5146 11.735C56.2082 11.0532 58.0662 10.8997 59.8475 11.2944C61.6289 11.6891 63.2513 12.6139 64.5042 13.9487L65.353 14.8547C66.4408 16.0343 67.9339 16.7525 69.5288 16.8633L70.7425 16.9487C72.5668 17.0799 74.3095 17.7617 75.7433 18.9052C77.177 20.0487 78.2353 21.6008 78.78 23.359L79.1365 24.5385C79.5888 26.0868 80.6162 27.4 82.0052 28.2051L83.0662 28.8205C84.6519 29.7355 85.9269 31.1107 86.7249 32.7665C87.5228 34.4223 87.8065 36.2819 87.539 38.1026L87.3523 39.3162C87.1147 40.905 87.4881 42.5252 88.3962 43.8462L89.0922 44.8633C90.1208 46.384 90.671 48.1814 90.671 50.0214C90.671 51.8614 90.1208 53.6588 89.0922 55.1795L88.4302 56.1624Z" fill="#B2B1B0"/>
<path d="M50.8735 30.7692V38.7179H38.6178C38.6178 38.7179 38.3801 27.4359 50.8735 26.0171V27.9145C50.8735 27.9145 42.9463 27.9145 40.799 36.094H48.896V33.6068H46.163C46.6637 32.7872 47.3533 32.1014 48.1734 31.6074C48.9934 31.1134 49.9197 30.8259 50.8735 30.7692Z" fill="white"/>
<path d="M52.4011 30.7692V38.7179H64.6569C64.6569 38.7179 64.8861 27.4444 52.4011 26.0256V27.9231C52.4011 27.9231 60.7103 27.9231 62.4757 36.1026H54.3787V33.6068H57.1116C56.6109 32.7872 55.9213 32.1014 55.1013 31.6074C54.2813 31.1134 53.355 30.8259 52.4011 30.7692Z" fill="white"/>
<path d="M53.4197 23.4872C53.3687 23.9839 53.172 24.4541 52.8545 24.8377C52.5371 25.2213 52.1133 25.501 51.6373 25.641C51.1564 25.4988 50.7291 25.214 50.4112 24.8237C50.0933 24.4335 49.8995 23.9558 49.855 23.453C49.855 22.977 50.0428 22.5205 50.377 22.1838C50.7113 21.8472 51.1646 21.6581 51.6373 21.6581C52.11 21.6581 52.5634 21.8472 52.8976 22.1838C53.2319 22.5205 53.4197 22.977 53.4197 23.453V23.4872Z" fill="white"/>
<path d="M67.6531 38.171C69.2826 41.7265 33.5337 41.0513 35.8423 38.171C35.8423 38.171 29.8163 40.906 42.2843 42.2735C48.6837 42.9192 55.1329 42.8848 61.5252 42.171C73.1529 40.7607 67.6531 38.171 67.6531 38.171Z" fill="white"/>
<path d="M42.2077 48.7692C42.1781 48.2668 42.0482 47.7755 41.8258 47.3248C41.6188 46.9306 41.3292 46.5865 40.977 46.3162C40.6111 46.0475 40.1999 45.8477 39.7633 45.7265C39.2879 45.5943 38.7967 45.5282 38.3035 45.5299C37.4919 45.5233 36.6862 45.6682 35.927 45.9573C35.2331 46.2171 34.6085 46.6355 34.1022 47.1795C33.6086 47.7276 33.2407 48.3783 33.0243 49.0855C32.7818 49.8827 32.6644 50.7133 32.6764 51.547C32.6669 52.4149 32.7871 53.2792 33.0328 54.1111C33.253 54.8646 33.6226 55.5653 34.1192 56.1709C34.6145 56.7646 35.2389 57.2354 35.944 57.547C36.6932 57.8773 37.5027 58.0462 38.3205 58.0427C38.4563 58.0427 38.643 58.0427 38.8891 58C39.1748 57.9657 39.4582 57.9144 39.7379 57.8462C40.0316 57.781 40.3166 57.6806 40.5866 57.547C40.8327 57.4274 40.9516 57.2735 40.9516 57.0855V54.3248C40.9593 54.133 40.9305 53.9415 40.8667 53.7607C40.7984 53.6 40.6748 53.4695 40.5187 53.3932C40.2881 53.2743 40.0378 53.199 39.7803 53.1709C39.4578 53.1282 39.0249 53.094 38.4987 53.0769V52.5385H44.1938V53.0427C43.9645 53.0677 43.7374 53.1105 43.5148 53.1709C43.3542 53.2222 43.2124 53.3203 43.1074 53.453C42.9964 53.6064 42.9262 53.7859 42.9037 53.9744C42.8658 54.2576 42.8487 54.5433 42.8527 54.8291V55.6838C42.8527 56.1282 42.8527 56.5385 42.8527 56.9829C42.8536 57.3237 42.882 57.6638 42.9376 58C42.1568 58.2051 41.342 58.3846 40.4932 58.5385C39.736 58.6958 38.9662 58.7845 38.1932 58.8034C37.1017 58.8196 36.0149 58.655 34.9764 58.3162C34.0772 58.0198 33.244 57.5494 32.5236 56.9316C31.8355 56.3348 31.2852 55.5939 30.911 54.7607C30.515 53.8747 30.3179 52.9116 30.3338 51.9402C30.3112 50.8581 30.5348 49.7851 30.9874 48.8034C31.4117 47.9323 32.027 47.1695 32.7867 46.5726C33.585 45.9582 34.4924 45.5028 35.4602 45.2308C36.5666 44.929 37.709 44.7823 38.8552 44.7949C39.1522 44.7949 39.4832 44.7949 39.8397 44.7949C40.1962 44.7949 40.5527 44.8632 40.9176 44.9145C41.2826 44.9658 41.639 45.0256 41.9955 45.094L42.9716 45.2991C42.9122 45.8974 42.8867 46.4615 42.8782 47.0085C42.8697 47.5556 42.8782 48.1026 42.8782 48.7179L42.2077 48.7692Z" fill="white"/>
<path d="M53.0123 56.9402C52.7231 57.3056 52.3895 57.633 52.0192 57.9145C51.7259 58.1332 51.41 58.3194 51.0771 58.4701C50.8059 58.5927 50.5209 58.6817 50.2284 58.7351C50.0162 58.7797 49.8001 58.8026 49.5833 58.8034C48.9853 58.8177 48.3906 58.7102 47.8349 58.4872C47.3519 58.2883 46.9111 57.9982 46.5364 57.6325C46.1696 57.258 45.881 56.8134 45.6876 56.3248C45.4959 55.806 45.4094 55.2539 45.433 54.7009C45.431 54.113 45.5495 53.5311 45.781 52.9915C46.0085 52.4683 46.3276 51.9906 46.7231 51.5812C47.1096 51.1822 47.5675 50.8604 48.0726 50.6325C49.0212 50.2073 50.0888 50.1346 51.0856 50.4274C51.4597 50.552 51.8057 50.7494 52.1041 51.0086C52.393 51.2615 52.6295 51.5694 52.8001 51.9145C52.9739 52.2888 53.0609 52.698 53.0547 53.1111V53.5043C53.0481 53.6078 53.0021 53.7048 52.9261 53.7749C52.8502 53.845 52.7503 53.8828 52.6473 53.8803H47.2833C47.2624 54.4492 47.3458 55.0171 47.5294 55.5556C47.6854 55.9701 47.932 56.344 48.2508 56.6496C48.5426 56.9236 48.8861 57.1357 49.2608 57.2735C49.9519 57.5415 50.7171 57.5415 51.4081 57.2735C51.8318 57.092 52.2155 56.8276 52.537 56.4957L53.0123 56.9402ZM50.5764 53.2821C50.6423 53.2908 50.7092 53.2862 50.7733 53.2686C50.8374 53.251 50.8974 53.2207 50.9498 53.1795C51.0179 53.0731 51.0478 52.9464 51.0347 52.8205C51.0401 52.5877 51.0027 52.3559 50.9244 52.1368C50.8504 51.928 50.7316 51.7383 50.5764 51.5812C50.4167 51.4209 50.2299 51.2907 50.0247 51.1966C49.8048 51.1022 49.5677 51.0556 49.3287 51.0598C49.1024 51.0628 48.8794 51.1153 48.6752 51.2137C48.4488 51.3194 48.2443 51.4673 48.0726 51.6496C47.8834 51.8537 47.7286 52.0875 47.6143 52.3419C47.4737 52.6444 47.382 52.9675 47.3427 53.2992L50.5764 53.2821Z" fill="white"/>
<path d="M57.7142 58.7949C57.2983 57.6581 56.8655 56.5726 56.4241 55.5299C55.9828 54.4872 55.5245 53.4359 55.0576 52.3846C54.9303 52.1111 54.82 51.8889 54.7181 51.7179C54.627 51.5714 54.5089 51.4438 54.3702 51.3419C54.2315 51.2488 54.0756 51.1849 53.9118 51.1538C53.6847 51.1106 53.4551 51.082 53.2244 51.0684V50.5214H54.2938H56.84H57.6887V51.0171C57.4146 51.0393 57.144 51.0938 56.8824 51.1795C56.8173 51.2007 56.7604 51.2416 56.7193 51.2967C56.6783 51.3518 56.6552 51.4183 56.6533 51.4872C56.6553 51.5805 56.6725 51.6729 56.7042 51.7607C56.7042 51.8718 56.7721 51.9915 56.823 52.1197L58.5205 56.3419L60.3538 52.0684C60.4047 51.9487 60.4471 51.8376 60.4811 51.735C60.5126 51.6532 60.5299 51.5664 60.532 51.4786C60.5298 51.4032 60.504 51.3303 60.4583 51.2705C60.4125 51.2106 60.3492 51.1668 60.2774 51.1453C59.988 51.0452 59.6837 50.9961 59.3777 51V50.4957H60.2265H62.4671H63.214V50.9744C62.9788 50.9971 62.746 51.04 62.5181 51.1026C62.3554 51.1418 62.2005 51.2082 62.0597 51.2991C61.9182 51.4073 61.7973 51.5405 61.7033 51.6923C61.6014 51.8547 61.4741 52.0855 61.3298 52.359L60.7442 53.5214L60.0567 55.0085C59.8106 55.5556 59.5475 56.1368 59.2844 56.7179C59.0213 57.2991 58.7327 57.9915 58.4356 58.6667L57.7142 58.7949Z" fill="white"/>
<path d="M31.1233 62.3333H31.972V64.0427C32.0569 63.8974 32.1503 63.7521 32.2436 63.6154L33.0924 62.2991H34.1872L32.8887 64.0085L34.2551 66.282H33.2961L32.337 64.5726L31.9975 64.9829V66.282H31.1488L31.1233 62.3333Z" fill="white"/>
<path d="M38.6686 62.3333V66.2906H37.8198V62.3333H38.6686Z" fill="white"/>
<path d="M43.2858 63.0854H42.2249V62.3333H45.2464V63.0854H44.177V66.2906H43.2858V63.0854Z" fill="white"/>
<path d="M51.5185 66.1795C51.1961 66.3023 50.853 66.3604 50.5085 66.3504C50.2392 66.3781 49.9672 66.3466 49.7113 66.258C49.4553 66.1694 49.2216 66.0258 49.0262 65.8372C48.8308 65.6486 48.6785 65.4194 48.5798 65.1657C48.4811 64.9119 48.4383 64.6396 48.4545 64.3675C48.4418 64.0839 48.4888 63.8009 48.5926 63.537C48.6964 63.2731 48.8546 63.0344 49.0567 62.8365C49.2587 62.6386 49.5002 62.4862 49.7651 62.3891C50.0299 62.2921 50.3122 62.2527 50.5933 62.2735C50.9244 62.2577 51.2549 62.3161 51.5609 62.4444L51.3827 63.1538C51.1459 63.0554 50.8919 63.006 50.6358 63.0085C50.3338 63.0583 50.0593 63.2146 49.8611 63.4495C49.663 63.6843 49.5543 63.9824 49.5543 64.2906C49.5543 64.5987 49.663 64.8968 49.8611 65.1317C50.0593 65.3665 50.3338 65.5228 50.6358 65.5726C50.8873 65.5714 51.1368 65.5281 51.3742 65.4444L51.5185 66.1795Z" fill="white"/>
<path d="M56.0761 62.3333V63.8547H57.536V62.3333H58.3847V66.2906H57.536V64.6325H56.0761V66.2906H55.168V62.3333H56.0761Z" fill="white"/>
<path d="M64.6145 64.6154H63.1716V65.5555H64.7843V66.2906H62.238V62.3333H64.6569V63.0684H63.1292V63.9231H64.5721L64.6145 64.6154Z" fill="white"/>
<path d="M68.4763 66.2906V62.3333H69.5118L70.3605 63.7863C70.606 64.221 70.8216 64.6722 71.0056 65.1367C70.9487 64.5888 70.9232 64.038 70.9292 63.4872V62.3333H71.7779V66.2906H70.8019L69.9531 64.7607C69.724 64.3419 69.4693 63.829 69.2741 63.3675C69.2741 63.8974 69.2741 64.453 69.2741 65.0769V66.2735L68.4763 66.2906Z" fill="white"/>
<path d="M67.1948 46.6325C67.1979 46.9821 67.1285 47.3285 66.9911 47.6496C66.8454 47.9617 66.6537 48.2499 66.4224 48.5043C66.1738 48.7723 65.8879 49.0026 65.5737 49.188C65.2707 49.3848 64.946 49.5454 64.6061 49.6666L64.377 49.1367C64.7841 48.9684 65.1493 48.7116 65.4464 48.3846C65.7322 48.0542 65.881 47.6258 65.8622 47.188C65.8745 47.0363 65.8545 46.8836 65.8034 46.7403C65.7524 46.597 65.6715 46.4664 65.5662 46.3571C65.4609 46.2479 65.3337 46.1625 65.193 46.1068C65.0523 46.0511 64.9014 46.0264 64.7504 46.0342C64.6479 45.9806 64.567 45.8931 64.5212 45.7863C64.4943 45.6831 64.4886 45.5755 64.5043 45.4701C64.5005 45.3455 64.5271 45.2219 64.5819 45.1101C64.6366 44.9983 64.7178 44.9018 64.8183 44.829C65.0213 44.6757 65.269 44.5945 65.5228 44.5983C65.7753 44.5974 66.0238 44.6622 66.2442 44.7863C66.4528 44.9113 66.6346 45.0769 66.7789 45.2735C66.924 45.4701 67.0359 45.6896 67.1099 45.9231C67.1745 46.1537 67.2031 46.393 67.1948 46.6325Z" fill="white"/>
<path d="M72.2276 52.9231C72.2075 52.647 72.1355 52.3772 72.0155 52.1282C71.9072 51.8999 71.7576 51.6941 71.5741 51.5214C71.3846 51.3455 71.1625 51.209 70.9206 51.1196C70.6507 51.0126 70.3617 50.9631 70.0718 50.9743C69.8983 50.9706 69.7256 50.9996 69.5626 51.0598C69.4149 51.1074 69.2789 51.1861 69.1637 51.2906C69.0427 51.394 68.9493 51.5262 68.8921 51.6752C68.8269 51.8233 68.7922 51.9833 68.7902 52.1453C68.7904 52.3422 68.8463 52.5349 68.9515 52.7008C69.0684 52.8695 69.2187 53.0121 69.3928 53.1196C69.5981 53.2386 69.8108 53.3442 70.0294 53.4359L70.7848 53.7607L71.6335 54.1453C71.9162 54.2731 72.1814 54.4368 72.4228 54.6325C72.6555 54.8239 72.8413 55.0666 72.966 55.3419C73.104 55.6416 73.1736 55.9687 73.1697 56.2991C73.2114 56.6845 73.1499 57.074 72.9915 57.4273C72.8052 57.7354 72.5565 58.0004 72.2616 58.2051C71.9575 58.4154 71.6182 58.5689 71.2601 58.6581C70.8664 58.7594 70.4612 58.8083 70.0549 58.8034C69.8107 58.8033 69.5668 58.7862 69.3249 58.7521L68.629 58.6239L68.0688 58.4872C67.8641 58.4468 67.6572 58.4183 67.4492 58.4017C67.4492 58.2393 67.4492 58.0427 67.3983 57.7949C67.3474 57.547 67.3559 57.3077 67.3219 57.0513C67.288 56.7949 67.2625 56.5641 67.237 56.3333C67.2147 56.1511 67.1778 55.9711 67.1267 55.7949L67.6614 55.6667C67.7868 55.9802 67.9313 56.2856 68.0943 56.5812C68.2416 56.8575 68.4243 57.1132 68.6375 57.3419C68.8484 57.5621 69.0953 57.7442 69.3674 57.8803C69.678 58.0266 70.0176 58.0996 70.3604 58.094C70.6681 58.082 70.9645 57.9745 71.2092 57.7863C71.3447 57.691 71.4539 57.5625 71.5267 57.413C71.5994 57.2635 71.6333 57.0979 71.625 56.9316C71.6338 56.7204 71.5709 56.5124 71.4468 56.3419C71.326 56.1718 71.1767 56.0243 71.0055 55.906C70.8321 55.7687 70.6443 55.6512 70.4453 55.5555L69.7663 55.2564C69.4777 55.1367 69.1807 55 68.9175 54.8547C68.6111 54.7124 68.3255 54.5283 68.0688 54.3077C67.835 54.1119 67.6497 53.864 67.5274 53.5836C67.4052 53.3033 67.3494 52.9981 67.3644 52.6923C67.3562 52.3043 67.4499 51.921 67.636 51.5812C67.8099 51.2794 68.0475 51.0197 68.3319 50.8205C68.6237 50.6348 68.9454 50.5018 69.2825 50.4273C69.6621 50.3245 70.0524 50.2671 70.4453 50.2564C70.8159 50.2548 71.1857 50.2921 71.5486 50.3675C71.9688 50.4482 72.3944 50.4967 72.8218 50.5128C72.8218 50.8091 72.8048 51.094 72.7708 51.3675C72.7708 51.6325 72.7708 51.9231 72.7708 52.2222V52.906L72.2276 52.9231Z" fill="white"/>
</svg>
