<svg width="293" height="80" viewBox="0 0 293 80" fill="none" xmlns="http://www.w3.org/2000/svg">
<path fill-rule="evenodd" clip-rule="evenodd" d="M39.6547 53.2299V52.5992C39.6547 49.6588 40.42 47.1919 41.9506 45.1985C43.5164 43.1717 45.5309 41.5042 47.8486 40.3163C50.3237 39.0302 52.9706 38.0764 55.7154 37.4813C58.4005 36.8687 61.1495 36.5516 63.9092 36.5364C68.0314 36.5536 72.1437 36.9224 76.198 37.6385C80.4585 38.372 84.8832 39.2646 89.4721 40.3163C81.3322 43.6189 73.0179 46.5096 64.5634 48.9764C56.4697 51.3554 48.1059 52.7836 39.6547 53.2299ZM95.043 41.5796C101.817 43.4696 108.699 45.6739 115.691 48.1926C122.683 50.7112 129.894 53.4414 137.323 56.3832C127.852 60.9468 118.049 64.8425 107.99 68.0394C98.106 71.1798 87.7614 72.7751 77.3511 72.7644C73.3419 72.7581 69.3397 72.4421 65.3832 71.8194C61.5597 71.2508 57.8197 70.2491 54.2414 68.8352C51.0209 67.5694 48.0329 65.8149 45.3913 63.6387C42.878 61.5325 41.1846 59.1127 40.311 56.3792C49.6058 55.7272 58.7898 54.036 67.677 51.3399C76.9646 48.5324 86.0983 45.2748 95.043 41.5796ZM76.6907 75.5993C87.7319 75.6157 98.6984 73.8587 109.137 70.4009C119.867 66.8422 130.374 62.6892 140.604 57.9628C155.025 63.4205 169.773 68.4605 184.848 73.0827C199.924 77.7048 214.782 80.0146 229.422 80.0119C233.094 79.9964 236.761 79.7305 240.394 79.2162C244.142 78.7089 247.821 77.811 251.366 76.5384C254.778 75.3235 257.981 73.6256 260.87 71.501C263.655 69.4715 265.808 66.7484 267.098 63.6268C274.745 62.5764 280.971 59.8992 285.777 55.5953C290.583 51.2915 292.987 46.0944 292.99 40.004C292.99 35.5953 291.733 31.6589 289.22 28.1946C286.707 24.7303 283.378 21.8973 279.233 19.6956C274.903 17.4258 270.272 15.7306 265.468 14.6563C260.532 13.5119 255.472 12.9303 250.393 12.9235C236.629 12.9235 223.518 15.3911 211.059 20.3263C198.252 25.4242 185.777 31.2592 173.7 37.7997C167.146 35.4906 160.701 33.076 154.365 30.5561C148.029 28.0361 141.692 25.6215 135.356 23.3124C147.155 17.8507 158.298 13.1251 168.786 9.13558C179.273 5.14606 188.887 3.1513 197.626 3.1513C200.686 3.1513 204.4 3.78129 208.77 5.04128C213.139 6.30127 216.416 8.08581 218.601 10.3949C219.257 11.0262 219.858 11.131 220.404 10.7092C220.951 10.2875 221.005 9.8677 220.568 9.44992C218.384 6.30127 215.111 3.93912 210.747 2.36347C206.558 0.81969 202.112 0.0189028 197.626 0C187.577 0 176.817 2.15259 165.345 6.45777C153.873 10.763 142.129 15.8546 130.112 21.7328C118.301 17.5962 106.266 14.0763 94.0597 11.1887C81.8302 8.32687 69.2855 6.89668 56.6987 6.92928C50.0871 6.95807 43.4963 7.64478 37.0318 8.97841C30.2595 10.3405 24.142 12.3877 18.6794 15.1199C13.2169 17.8521 8.73764 21.1061 5.24175 24.8821C1.74725 28.6621 0 32.8618 0 37.4813C0 41.0504 1.0351 44.0426 3.1053 46.4578C5.17551 48.873 7.85435 50.8677 11.1418 52.4421C14.5037 54.0433 18.0937 55.1575 21.7951 55.7485C25.418 56.3618 29.0886 56.6779 32.7672 56.6935H36.3714C37.902 62.7826 42.5447 67.4545 50.2997 70.7092C58.0547 73.964 66.8517 75.594 76.6907 75.5993ZM65.5468 29.9214C62.4898 29.9214 59.2672 30.4466 55.8789 31.4971C52.4885 32.5522 49.284 34.0949 46.3746 36.0728C43.4689 38.0253 40.9681 40.4819 39.0006 43.3164C37.0339 46.1521 36.0505 49.4599 36.0505 53.2398V53.5542H32.7734C29.5268 53.5365 26.2894 53.2201 23.1055 52.6092C19.8352 52.0135 16.6459 51.0624 13.5992 49.7742C10.6512 48.5155 8.19386 46.8882 6.22717 44.8921C4.26048 42.896 3.27713 40.6413 3.27713 38.1279C3.27713 34.1371 4.80632 30.6224 7.8647 27.5838C10.9231 24.5452 14.6922 21.9649 19.1722 19.8428C23.798 17.6979 28.7038 16.1621 33.7567 15.277C39.0012 14.3327 43.8076 13.8605 48.1757 13.8605C60.3022 13.8265 72.3947 15.0944 84.2283 17.6405C95.9039 20.188 107.398 23.4494 118.641 27.4048C115.801 28.6634 112.961 29.9758 110.12 31.3419C107.28 32.708 104.33 34.0204 101.27 35.279C95.3441 33.6402 89.326 32.3257 83.2449 31.3419C77.3964 30.4006 71.4768 29.9262 65.5468 29.9234V29.9214ZM106.843 36.5364C109.9 35.2764 112.795 34.0164 115.528 32.7564C118.26 31.4964 121.046 30.2364 123.885 28.9764C130.22 31.2855 136.665 33.7007 143.221 36.222C149.776 38.7433 156.332 41.1579 162.888 43.4656C160.485 44.7256 158.082 45.9856 155.679 47.2456L148.467 51.0256C141.476 48.296 134.539 45.7237 127.655 43.3085C120.771 40.8933 113.834 38.6385 106.845 36.5443L106.843 36.5364ZM234.333 74.336C221.442 74.336 208.06 72.0269 194.185 67.4087C180.311 62.7905 166.164 57.7506 151.746 52.2889C154.147 51.0249 156.605 49.7099 159.118 48.3438C161.631 46.9777 164.089 45.6653 166.492 44.4066C181.21 49.8906 196.259 54.5179 211.556 58.2632C226.958 62.0445 243.181 63.9345 260.225 63.9332H262.518C259.896 67.5022 255.963 70.127 250.718 71.8074C245.433 73.4928 239.899 74.3434 234.33 74.3261L234.333 74.336ZM219.257 44.4166C220.349 44.4166 221.496 43.7866 222.698 42.5266C223.9 41.2666 224.064 40.1114 223.191 39.061C221.881 37.171 222.809 35.4912 225.975 34.0217C229.197 32.5414 232.728 31.7875 236.299 31.8174C239.14 31.8174 242.253 32.3426 245.64 33.393C248.989 34.4275 252.142 35.9724 254.981 37.9688C257.871 40.0166 260.32 42.584 262.191 45.5287C264.158 48.5726 265.141 51.9845 265.141 55.7645V56.6995H264.485C248.751 56.6995 233.73 54.915 219.421 51.3459C205.112 47.7768 191.074 43.5751 177.307 38.7407C188.851 32.7643 200.781 27.5041 213.024 22.9921C224.949 18.5998 237.616 16.358 250.387 16.3792C254.851 16.4117 259.299 16.8864 263.661 17.7957C268.122 18.6589 272.427 20.1448 276.44 22.2063C280.266 24.1958 283.435 26.7157 285.947 29.7662C288.459 32.8167 289.715 36.3314 289.715 40.3104C289.715 44.719 287.639 48.3935 283.487 51.3339C279.336 54.2743 274.42 55.9541 268.739 56.3732V55.7426C268.739 47.7622 265.626 41.197 259.399 36.047C253.171 30.8969 245.47 28.3245 236.293 28.3299C234.084 28.3618 231.886 28.6287 229.739 29.1256C227.47 29.6058 225.269 30.3465 223.184 31.3319C221.309 32.2088 219.637 33.4403 218.268 34.9528C216.958 36.4236 216.302 38.2088 216.301 40.3084C216.301 40.937 216.52 41.7766 216.957 42.827C217.395 43.8775 218.159 44.4027 219.251 44.4027L219.257 44.4166Z" fill="#F0EAEA"/>
</svg>
