<svg width="34" height="29" viewBox="0 0 34 29" fill="none" xmlns="http://www.w3.org/2000/svg">
<path d="M33.4316 3.875C33.4316 1.7349 31.6856 0 29.5316 0H4.33164C2.17773 0 0.431641 1.7349 0.431641 3.875V25.125C0.431641 27.2651 2.17773 29 4.33164 29H29.5316C31.6856 29 33.4316 27.2651 33.4316 25.125V3.875ZM30.8766 2.875L16.9316 11.78L2.98664 2.875H30.8766ZM30.5816 26.125H3.28164V7.37L15.3911 15.0575C15.7342 15.331 16.1603 15.4812 16.6001 15.4837H17.2826C17.7225 15.4812 18.1486 15.331 18.4916 15.0575L30.5816 7.37V26.125Z" fill="white"/>
</svg>
