<svg width="38" height="38" viewBox="0 0 38 38" fill="none" xmlns="http://www.w3.org/2000/svg">
<path d="M38 4.22222V33.7778C38 36.1096 36.1096 38 33.7778 38H25.8611C25.2781 38 24.8056 37.5274 24.8056 36.9444V24.2778H29.7456C30.2472 24.2779 30.6797 23.9249 30.78 23.4333L31.54 19.6333C31.5714 19.4798 31.5329 19.3203 31.435 19.198C31.3372 19.0756 31.19 19.0031 31.0333 19H24.8056V12.1389C24.8056 11.8474 25.0419 11.6111 25.3333 11.6111H30.6111C31.1941 11.6111 31.6667 11.1385 31.6667 10.5556V7.38889C31.6667 6.80592 31.1941 6.33333 30.6111 6.33333H25.3333C21.8355 6.33333 19 9.16886 19 12.6667V19H16.4033C15.8204 19 15.3478 19.4726 15.3478 20.0556V23.2222C15.3478 23.8052 15.8204 24.2778 16.4033 24.2778H19V36.9444C19 37.5274 18.5274 38 17.9444 38H4.22222C1.89035 38 0 36.1096 0 33.7778V4.22222C0 1.89035 1.89035 0 4.22222 0H33.7778C36.1096 0 38 1.89035 38 4.22222Z" fill="white"/>
</svg>
