<svg width="38" height="38" viewBox="0 0 38 38" fill="none" xmlns="http://www.w3.org/2000/svg">
<path d="M27.4444 0H10.5556C4.72588 0 0 4.72588 0 10.5556V27.4444C0 33.2741 4.72588 38 10.5556 38H27.4444C33.2741 38 38 33.2741 38 27.4444V10.5556C38 4.72588 33.2741 0 27.4444 0ZM34.3056 27.4444C34.294 31.2289 31.2289 34.294 27.4444 34.3056H10.5556C6.77108 34.294 3.70604 31.2289 3.69444 27.4444V10.5556C3.70604 6.77108 6.77108 3.70604 10.5556 3.69444H27.4444C31.2289 3.70604 34.294 6.77108 34.3056 10.5556V27.4444ZM31.1389 8.97222C31.1389 10.1382 30.1937 11.0833 29.0278 11.0833C27.8618 11.0833 26.9167 10.1382 26.9167 8.97222C26.9167 7.80629 27.8618 6.86111 29.0278 6.86111C30.1937 6.86111 31.1389 7.80629 31.1389 8.97222ZM19 9.5C13.7533 9.5 9.5 13.7533 9.5 19C9.5 24.2467 13.7533 28.5 19 28.5C24.2467 28.5 28.5 24.2467 28.5 19C28.5056 16.4787 27.5065 14.0591 25.7237 12.2763C23.9409 10.4935 21.5213 9.49438 19 9.5ZM19 24.8056C15.7937 24.8056 13.1944 22.2063 13.1944 19C13.1944 15.7937 15.7937 13.1944 19 13.1944C22.2063 13.1944 24.8056 15.7937 24.8056 19C24.8056 22.2063 22.2063 24.8056 19 24.8056Z" fill="white"/>
</svg>
