<svg width="23" height="27" viewBox="0 0 23 27" fill="none" xmlns="http://www.w3.org/2000/svg">
<path d="M20.9845 19.4597C19.3276 19.2168 17.7628 18.7218 16.3362 18.0344C15.8877 17.8092 15.3452 17.8493 14.93 18.1471L12.4396 20.3993C8.88487 18.0847 5.80137 14.245 4.46063 10.1559L7.40379 8.38197C7.82087 8.07112 8.00298 7.57969 7.92153 7.10277C7.63473 5.58608 7.60566 4.00087 7.84014 2.40116C7.94309 1.69885 7.42271 1.02474 6.69532 0.918121L2.0346 0.23496C1.30721 0.12834 0.385888 0.312139 0.24291 1.28757C-1.52811 13.3699 7.41269 24.9367 19.9131 26.7689C20.8695 26.9091 21.3668 26.1451 21.4716 25.4297L22.1293 20.9427C22.2323 20.2404 21.7119 19.5663 20.9845 19.4597Z" fill="white"/>
</svg>
